<mxfile host="65bd71144e">
    <diagram id="4EMYBZ5Qnfqf5r-BXb1H" name="Page-1">
        <mxGraphModel dx="1059" dy="782" grid="1" gridSize="10" guides="1" tooltips="1" connect="1" arrows="1" fold="1" page="1" pageScale="1" pageWidth="850" pageHeight="1100" math="0" shadow="0">
            <root>
                <mxCell id="0"/>
                <mxCell id="1" parent="0"/>
                <mxCell id="17" style="edgeStyle=orthogonalEdgeStyle;rounded=0;orthogonalLoop=1;jettySize=auto;html=1;entryX=0;entryY=0.5;entryDx=0;entryDy=0;" edge="1" parent="1" source="18" target="20">
                    <mxGeometry relative="1" as="geometry"/>
                </mxCell>
                <mxCell id="18" value="GitHub" style="dashed=0;outlineConnect=0;html=1;align=center;labelPosition=center;verticalLabelPosition=bottom;verticalAlign=top;shape=mxgraph.weblogos.github" vertex="1" parent="1">
                    <mxGeometry x="250" y="250" width="80" height="80" as="geometry"/>
                </mxCell>
                <mxCell id="19" style="edgeStyle=none;html=1;exitX=1;exitY=0.5;exitDx=0;exitDy=0;entryX=0;entryY=0.5;entryDx=0;entryDy=0;entryPerimeter=0;" edge="1" parent="1" source="20" target="22">
                    <mxGeometry relative="1" as="geometry"/>
                </mxCell>
                <mxCell id="20" value="GitHub Actions" style="shape=image;verticalLabelPosition=bottom;labelBackgroundColor=default;verticalAlign=top;aspect=fixed;imageAspect=0;image=data:image/png,iVBORw0KGgoAAAANSUhEUgAAARgAAAEYCAYAAACHjumMAAAydklEQVR4nOydDYgdV3bnT82IpRIEWwKz8wxGLtUYRmaGdos4WGJadDWuME9kBrUYZ2WPO0hiJm2JJFgGx6omztZ9xLNd9jpIZj1Y7jhYYtuxRBzUghn0ZrdCV6c1SCYe1O51kMKa55IwzAsYpnZXJJVFUMvtvs9qtfrj3Vv31sd75wdNHM2rW7f7X+/Uueeee84W6AFMPzUAYDf7+QYA1Og/s5+1SADgKvvvGwDwzwDQjFztao7TRpCeRyt6AjwYjrcTAB7TLXtQt2z634+wH13ibT4HgE8BIEpa4adJK/wEAD6Og0Yk8R4I0heU3sBQo2I45AQA2Bt4JHmwAACnIlc7W+AcEKRSlM7A6NbwVt2yn9Qt26Y/APAtACjTUi6my6qkFQZJK/xZ0go/Slpzd4qeFIKUkVIZGNNPDwPAJIuhVAXq2bwQuVpY9EQQpGwUamB0a3iLbtlDhkMOAcDTkmMpeXM1Dsg5AJiLg8ZC0ZNBkDJQmIFhOz/vA0C9qDko5EzkakeKngSCFM1Xirip4Xi7AeCzHjUulMOmn84ajldkUBpBCic3D4Yth75vOKTeA8uhbvkCAN5pT9k/SVpznxc9GQTJm9wMjOmn7zPD0o+0AWBf5GoYm0H6CuVLpNr47PdNP/2sj40LsF2xa2zZ9O2iJ4MgeaHUgzH99CQAHFd5jw1YeRxgNTsL3Aqn83omcrWZgu6PILmhxMAYjmcaDnlLcRA3BoBP6E8ckPaKM0VRt2n9huMZzNDQn68bDnmEGZ9B1VnDSSt8M2mFfxIHjUTlfRCkSKQbGJYs967scVewAACNPDwA00+fZx6YKmMTxQHZEweNtqLxEaRQpBoYw/G+YzikKXPMFVDDMhG5mqrx18X000MAQBQZmtORqx1TMC6CFI4UA7NiC/qUxNgGXTo0k1b406QV/m0cNGJJ4wpjON6w4ZBRVhbicYlnpGbigDQwAxjpNaQYGLaUOCVjLAZdOhwo8xfO9NM6y0Q2ZI0ZB2RXmX9nBOHlq1kupp7LQyeiPwaAVwDg32WcC/VYgjggL7anRo4lrblSxyXioPEpALxBjeGWbeZ2GZ4bOz3+i7L/7gjSLZk8GMPxDhrO0gG/rNC39kjkaoUvg0Qx/XQSAFwZY6Eng/QKwh4MC+ieBoCtGe7/OQD85/aU/cdf/M2RyhoXWPZo/g4A5nTLTthWt7BHxzyZv01ac7flzhJB8kXIg5G0FR2zLdobGccpHZJ20+jf51HcwkaqDPdRAXZCOKtxoV+aHb1oXGDZm/k5ABxgcSVRDMMhByVOC0FyR8DALGXoZmGmPWXbVY63dEPkajNJK6yzDGNRXjYcz5Y4LQTJFa4lUsazRX17Bsf002vs+IEoI1iSE6kiXXswtfHZ72cxLkkrHOtH40JpT9nfo55bhiEuGY73mMQpIUgudO3BsJILIqny1HPZg7VQMgfHZyJXOyB5SgiilE09GN0a3mL66QVR48I8l743LrAclzmTtELRXJnvmn76nOQpIYhSujAwNl0ajQqO/0x7auRvBa/tSdpTI68CwBmBS7cAwGnW3RJBKsGmSyTTT6lLf1hgbOkuPTv/89yKei0xywKeiwNypkrtXTMsOd3I1V5VMCUEkc6GHgyr/i9S6rLdnrKlpM0bjvckXaKZfvorALjEvKnOF9NgLWU9wyH/y/TT2dr47CEZ91VN0gp/JJgnc5QVykKQ0rOuB8P6Fn0mcFqYehU7ZOS5mH5KqPEQuHSBncYutUeTIeiLfZeQSrCmB6Nbw1sESxF8HgdkjwzjUhufPSloXCiDhkPmTT89UeaYReRqZwBgWuDSw1g8HKkC6xgYe0iwnu6bMtL/TT89qVt21mLhDwGAbzjkepl3X+KA/JnIdYZDfiR/NggilzUNDOsVzctCe8p+O+uEDMf7joJOBG+afnrJcLxhyeNmhi3jRgXiMXWMxSBlZ80YjOmn/8rZeZF+OR6UFHe5kGFbvBsacUD8slXzF4zHYCwGKTX3eTDsQedt6xpKPLyo+nCfZzhkUvE9uGHxGN6g9CgLxiNIKbnHwOjW8FYA4P7yxcFS4anMmH76tMwatxtw3PTT66afero1/FAO9+uKpBW+w3kJ/VtlPd2OIMpYZWDsJwVqy0Zx0LgoaT55BmN3AgCpjYfzpp8qbbLWLUkr/InAZU+zGj0IUjpWGxje5UkSB0Rmtu5uiWN1C/1yflYbn32r6C8qa81yVODSJxVMB0Eyc0+QV6BuidTjAKafprLGysDTkaudL3ICAscIzkWu9ozCKSGIEF96MCwh7Vs8Fyet8KdKZtUdYdIKxzJWjFuLadNP3zcc75BuDfMGu6WQtMIPOC8ZUjQVBMnECgNDTvB2KkxaYaEnpdtTI+9FrvYoAIywIwoy2LIc1yBnauPhBUljcpG0wp9xXvKQ6acqt/YRRIiVMRje+MtCGdq5wvIWbyh44nsz6nTZaDierHa43SJSP6d0SYQIsmRg2PKIN8A5oWZKYkSudjEOyINJKzyVsZr/agYNh/yD6acndGv4AYnjrgsz3Lw1Yw4XtaRDkPXoeDC89V4XIlfL2vdHOnHQaLenRl4AgEclx2aWzjXlvKXd4Py8oVt2aQ92Iv3JkoHRLZu34j3vw58rkatF7Sl7LwAQALgqcWj6Bb7OzjUpPc1MfwcA+ITzsm8qmg6CCNExMDxvvrgK3QGS1twXkas1IlfbQ70PiUPrywcNyWXTT4nheCqXJR9xfv4RRfNAECE6SySeB5P3rVo4katNxAEZAQDZ2+qe4ZBZw/EOsho6UokDwhXsNRzClWaAIKrpCwMDy/GZMHK17wHAEclB4N2GQ87VxsP/JnHMDh9zfr4056oQhPIVdhq3azc/Dkilm7GzU8sqtrSfZrWDZR7W5P1b572djiAb8hWB8z+Vb1gfudr5OCA74oAcFyiRsBGjAHC9Nj4rJQCctELeuaGBQUqFiIH5Z0VzyZU4aERx0HgjDsgeAJDZ97mmW/abMgZKWnMJ59x000+z9MBGEKlQA/MNzmtKXamflzhotCNXG5F8rmnQ9NO3JAV+eeeEXgxSGr7C+0CWvRWIKCvONZ2SNORR3bIflzDOP3F+voiSFwiyJl/hPCJQqjq2KmhP2X8SB6QOAKcB4HaWsXTL/l0JU8K+3khl4TUwMrNiS0nSmrsTB42fR652LA7I72Q5pc3av+TNwwXcE0HWZNPm9/1MHDSoQd2VIe4k49wSrweD5TOR0oAGZhPYuabfZueaPue8PHPAVWK3BgTJHTQwXdA518SWTDxg+QSkr5F+fqYX0a3hrbplf99wyIucl95RNCUEqQRoYDaBpf5fEGwIx7ukWuv+GFNBKssWtvXcrSvfNwWNDMczdMv+QwB4MUMzOBmJe7wGpud3+pDqsIU9kN2+nfsiS9T00+MA4GXtMhkHRMYRBN45/JuEeyKIFLiDvPTNrmYq5cD0U2pYTkpqYSsjSQ7PFiGV5St41mWZ2vjsftNPr7DtaBk0k1Y4J2Ec3sQ5mQc3ESQTWwROR9d6oWRDB+qRGQ4RDeKuRztytX2SxuL1YPBoAVIaqIFpsnhDt3y9F96SrA/1d9jWs8xatknSCkX6S9+Hbg1v5TQwtzExDykTWyJXu2r63beENhzySByUuqnApph+ehAAzikYmnoPR9pTI1K8CN2yeQ3fFzLuiyCy6AR5efI1KrtVbTjeE6af0uXQtOSh20krfDEOyJ7I1WQuUXhr9fTM0hXpDTqJdp9yFIyu5K6G6aeEcynYLU2J8ZZ7MBzC+7fuyVo9SHXpGBieB7NymaWmn54EgOMKhg7jgDyjYNwOXH/rqhdkR3qPpSVS0go/5bnI9NPnlc1IEro1/JDpp57pp9cVGJerSSscjVxthPWRVgVvdTrcQUJKxZIHk7TCT3SLa5eWfmHfUDarjLDC1xcUeFvUQ9gnOc6yJux34J0/bx8lBFFKJ8j7S87rTNNPDymYTyYMx9tp+um7AHBNsnH5AgBIe8r+7TyMC2OS8/NRr9ZLRqrLkgcTB43PDWepTSlPUJEAwFl1U+PD9NPnWB1d2URxQEby/PKyHJ0652Wl9SiR/mXlWSTeavqm4XjDkufDhW4NG4bjPWf66SUAkNKLaAVR0gr/KA7Io3l7BgLFwpM4ICryehAkE9rK/8f0019zHvI7FbnaC7ImY/pp9xl/ywHNREGbDjrmMdZithCYweTxYK5GrrZH4ZQQRIjVBaducH5hi+zBoyof53DkaucVjd0tuHuE9AT3lGtIWmHAef3jpp/yxgo2orBzNEkrPB0HZEfRxoUFqblKRUiqO4Mg0lltYH7GeT31gN43HE9WcesivigRAOxoT40cK3oXxnA86pUdFrj05wqmgyCZWW1gPhJwtw3dsp+VNJ+3JY3TDVdXbD2XYntXt2yRrX9fcbIfggijrf4H009tAJjlHGchcrVdMiZk+ulnORxH8CNXm1B8Dy5YcfFfcbY6iSJX26FwWgiSiftKZkauFgoUjh40/ZQ3MWxNklaocrt1hp14LpVxMRyvxjKPeYzLHQA4onBaCJKZr67z71t1y+YN3g4BwFzSmsu03NiyzfxH3bJ5+w9tBl1CPBO5WiNpzWVuJSKb2ng4L7Bz9Pf091E0JQSRwnpFv4VqyRoOOZhtOktZxW0Fb+bDkavNSB5TCobj2YJb7rhzhJSeNQ1MHDQWAEAk0WzMcLzvZJ1U5GpnklboZxzmRhyQw3FAHoxc7WLWOanAcDzdcIhIjZokDsh7CqaEIFK5L8i7EtNPZwWLYR+Q4TGYfjoKAO8L9HieiQPyTBw0kqxzUAnLeRHZlm5Eriar+wGCKGO9GEyHOd2yxwDgNznHHdUt+/LtX569mWFu1JO6QY2Fbtn/jxmZBzZY1n0BAP89Dsjx9tTIj5PWXKn7QtfGZ3+4ZZv5nwQu/ShyNVlpAQiilA09GFh+y04CgCsw9o3I1R4Vm9baGI5nGg6hb/zHWLYr9VA+BICFOCDNsnssHVi/6esCnhksL/sapTnFjiAbsamB0a3hh2rj4T8INlxbaE/Z3yvjzk1R1MZnv61b9geCf8+wPWXvS1pzlTCkCLKpgYG71dWuCd5jJnK1A4LX9hwZEgnbkas9qGBKCKKMrnpTsypuotuio6afigQyew4W1BXNUi7lNjuCbMRmQd6VfKpb9g/WKPHQDaO6ZSe3f3n2FwLXVh66LHrg9878fYb2tFF7yj5y59c3/4/kqSGIUrpaInVg28YXMtzvTORqfZXezgK6VwRjLsCykHdgS1ikinS1ROoQudpM0gqzlKY8bPrpZ7Xx2SczjFEZauOzP2S7RaLG5dM4ILvQuCBVhcvAwPJhxD/J2EHQ1C37p70clzEcTzf99F3dst8R2YruEAfkxaJr1CBIFnhiMEuwBLbzumVvBYDHBe+7BQBGDYc8AgDXktZcz7yhDcezDYf8Jf39MgxzGwBeak+NYL4LUmm4YjCrYY3ks3yROoyW9bxQtxiOVzMccklSreDS1atBEBG4l0griQMiq1zAuSovmUw/NQyHvC/JuMRxQLDHEdITcC+RVpK05toAcFG3bJudExKls2Q6rFu2vmWb+Y9VyFY1HG/QcMiJLdvMcwDwiIQhL8cBGWYlKxCk8mRaInVgXzTRTN/1OBq5Wp41ernIcBJ6PWLW5A2NC9IzSDEwcNfI0GXCTlljsu6KH7BuBwtFFrc2HM/ULft3dcv+Lqs+x9VaZANuA8CbdFmExgXpNaQZGLgb6Lwu8cu3mjOsFkpuW7fsHNakQK/objkeuRrGXJCeRKqBgbtG5iAAvJwxLrMRnwDAR3Gw1LD/YwBoJ60wyhK30a3hrbplPwIA3zAcMsjODO1W2OHgU5bnUundMwTZCOkGpgPLB+Ftf5KVkLW//acV/Z0WVmbCstR9k3lZ1JA8zP6vqla0axHHAdmFSXRIr6PMwMDdHkuXsmSz9iDUqJQi/Z/pY68o4LV7Ha2osW6z4l4Ra7Z/o4Ap9x1V10ipgYFlT+YxwyEEAL4reBK7V6Diz7Sn7B/nXYCL9V36tuGQx5mntlPC0i9mS9VP4oBcpQ82K3GKCNCrGik3MB1MP30OAE7ndb+SEUauNpL3Tdly8KSkbOtuoA80waB19/S6RrkZGFi20jsNh+wHgKM5tIctAx/FAXkzaYXn80ocNBxvULfsZ3XLfqrAvzF9iD+IA/JB0grnqpA0mSf9pFGuBqaD4XiG4ZCTkhPVygQV69W8W4soSP6TAXXN95Uh5lQG+k2jQgxMB8Px6JrzRyzHRLRmSlm4AwCX6XIoDsh7cdD4NI+bUmOtW/bzumUfV5h/lBVqcK8mrfD19tTIz4qeTN70s0aFGpgOKzya0RILsBERAByJXC3Xdq6mn9IH1qvY36wSTfFk0e8alcLAdDD9lIrwFgA8XfRcOCiktILpp88DwKm87yuJviidihqVzMB0MBzPBIAnDYc4ADAEAA8VPSdGwvINFuKAUG/l53mfj9Kt4a/XxsNXAOCpim/7X40DcjwOGh8WPRHZoEZ3KaWBWQ0rNj7MgmNFuJp0CfRGHJBzRR5IZB7etR7agaMGew9ri9MToEb3UgkD00G3hnXdsncCwDeZdyMzGn+b9be+QQ1KHJA281Y+LkNKf218dr9u2ad7IBi+GvoAN9tT9jFWX6iyoEb3UykDsxKWQs171ulqJ1oOAP/G/i1cfV6pbLAT3VdyOHIRrVHQvSa5BMd6VLoDKGq0Nn1lYOKA1OOg8XN1s5KLbg1vrY2Hf84SE2U9uJ04UsTSx5dOo2+WQs5S2elD/DXdsgfpD4uPbZU0L2BHKSrlyaBGG9NvBsaNg8ar6mYlF9NPTwCAL2k4+tCeiwPSkLXkY+kFxwHgeYmxsUp5MqjRxvSVgQGA05GrHVM0JamwYGGWpm0rocu/ZyJXa0oY6z7YEZC3MrTGXUllAr+o0eYaZeoqUEGcoifQDbo1nLXdbIerSSs8HAfkQVUPLix5ho0bkauNxAHZkbRCnz2AotBlxhXD8Z6QOEXpoEbdadRvHgxlJO+MW14knFdps7MlhXgB7M1+idUuEeVq5Gp7JE5LKqjREptq1G8eDOWkbg2XtgCW6aeHAGBM8PI7AHCmPWUXusSIXC1uT9nfAwDCtv9F2E2/xIbjlU4r1OhLNtWoHw3MoG7Z3yl6EmtB18mssLlo9ufLkasdSVpzheftJK25LyJXa8QBEf0iUg6zThWlATW6jw016kcDA4ZDynZcfgnDIX8qeOkXAHC8PWX/heQpZSYOGhfjgFA3ekZwiNHa+Ox+ydMSBjVak3U16scYTIddZdqpYJXNPhO5Ng7I4TholL5RfoZe5oVUBFwNarQha2rUlx4M42TRE1jFu4LXUSN5XvJclBAHRDQHaTcLShYNarQ+a2rUzwbGptZat4ZlZjkKYfqpJ5CfcAcAfOraVqW2Shw0rsYBGRUIKurUWy0yOI8abcqaGvWzgYHltWP4wyInwEpTiJTW/GnkahNVeXA7sEZzrwtcOqhb9rCCKW0KatQ192nU7waG4hqOlyUXIBO6ZYsEMOM4IC8rmE4utKfsn7ADp1wYDnlKzYw2BjXqntUaoYEBqBkOuWI4Xp6dHb9Et2yRgNqROGj8o4Lp5ELSmvsCAPYJZJMWZWBQo+65R6N+3kVazQ1WhzS3nSV2PuQa5yncZuRq+xROq2tW1Od5mP3T/05a4UdJa66r9XttfHZSt2yX87bH8+y7hBpl06jK5fxk03mQduVlZAyHnOA94h8HpBTN69iOwewaPb0jADjQTQpA0grfFnh4CQDkaGBQoywa4RJpFYZDRLciRRBxvecUzIMLVnfk2hoPLrBSkbPdLDlZSQLec2EGy6bNC9Qog0ZoYO5n0PTTX5l+6unW8AOqbsJOovLmdhzPu8j4auiDazjkbzapOWsYDnmrm3NEcUCOsVIFPORy0ho1WiaLRmhg1oZaf1IbD+cVJnjxBpXbRfd8Nv100HDIdVYlbTN2Gw7ZtP0Mq9LG9XsZDslr1w81yqgRGpiNoW7er2rjs2/J3mUyHMI7XiDz/rzUxme/z+qf8Bhcr5sPxQE5xZnY9S2OzwqDGt1FVCM0MJuj65Z91HDINdNPL0j0aLjiCHFALku6Lzf0rahb9rRAzdmuWnewJQXP75eLgUGN7iKqERoYPkYB4Nemn16vjc/+V8PxDmYIOPJ+SQppULbirSiSpt918e6kFfLs3Bmmn+YR6EWNViCiEW5Ti7FTt2z680ew7EoDO+r+MTvY1k1AjCuAnGd+TgfWikPkrdjhXLcfpA+vbnEd9amzHlYqQY1WIKJRPxmYBgDsFwjcdcuo4JZmN+T+4LJtztmMrTh4AoP/zDn2SdNPy3QiHjW6H6OfDAy0p+yna+PhOYVGRhVd5yEYjrdbt+z9rCeOzrypG3FAprtNXV+xzSkcb0pa4en21AhP1TbV3ohqUKP7eaKfjgo0IlcjkK2oTlEciFxt02pjpp8+DwCn1vmfu2o1wVzu2Yw9dBZEShSYfppmuGfRoEZr3KMvg7ztKfv3WTpz4XVRu2TTmI7pp3UAeGWDjyy1mmABwTUR3OZczQcZ6p9U2YtBje5nsC8NTNKaux25GvVodmSoQ5obm7VZYdmYl7poEarrlj3N3oD3kGGbcyX0rfj7GeqfVKZl7GpQo7XpSwOzkvaU/UwcLBUB/6TouWTg2xyfXXpLmn56slPNL+M2J7AErONVqtxWAH2pUV8Fedciac0lSWvuLACcNxwySUUoek4CPMT5efqQHq+NL710z2bc5gTWiqPQFPkK0Jca9b0H04Fa9cjVXsjYrU8JCs9DHZWwzUld7rclzqmSoEZrgwZmFZGrnY0Dso0VPn5H4BSpCjbbVv9UcFy9wGDhWnSVtl5SUKM1QAOzBnHQiOOgcTFytT+IXG0b82qKNDSbifrLAuaXNVi4FlU2MKjR/YRoYLqAejXU0MQBGYwDQl1WHwB+yra57+QwhQ3rn9AHKA7Ivhx3YWS/FSHnIlIqQI3uJ+77IC8PcdD4GAA+joPGl/9mOJ7Oal8MMlf2sS5dWp5DHfUu5naVrtcNh6jedlfxVgRWg4eHKIc8JtToXng1+hgNTEaW30yNkLesoOmn/7eLnIgvP244Xi0OGhu+/Vg/m1HDWaoJy/swbMZtAHg5DsjbirY5H+P8/JHNck+yghrdB69GIRqY4vics94IdcEvbvYh9gCDgrek0m1O3ip1qo0LAzVagYhGGIMpDt61eNfBNfYAn+Gf0rrksc3JEzzM64gHanQv3BqhgSkIzuI99O3BVYgjcrUjbKs9a1BRerBwNaw1K88J91zOLKFGdxHVCA1MQfA+vN0EEVdD35Js10sUVcHCezAc4nEmkuVSewU1uouoRmhgioO3vKJu+ulbvDdhD7DIW1L5WxHunjDetLL9SuKAfKRuRveAGmXUCA1MQbBWELyxhKPMVeW9F+9b8kzkar+n/q24dML4fYE0+F8omtI9oEbZNUIDUyy8LTlBt+wfityoy7dkm34mcrUjIvfgRbfsgwJp8DObbQVLBjXKoBEamAKJXO08r1vcKTQuAnuAR9Z5K8dxQA50tlDzQLdskdjDCwqmsi6oUTaN0MAUz1XOzxumnxLRm1G3nxXaOgAAp1nBrWPLRyEavHMRhhVU4u3QGEWuVkQVQtSoe+7RCBPtCiZphTO6ZfPWB/Zq47Pz7amRvxO9L6sfW0g1P90aNll1Ny6SVviBmhltel/UqEtWa4QeTMEkrfC8yHW6Zb8ufzb5UBsPPZE0+aQVvqdmRpveFzXqktUaoYEpGLYLcJhVlOdh0PTTC6w3TiXQreEtpp+eAIAxgcvPFNHYDFAjHu7TCA1MCYhc7SwAvCpw6ajhkOtVeYBr4+EfslIXvEvzOK9dk/VAjTZlTY3QwJSEOCC+YOFxw3DI35T5AV4uaeEdEtnyhWW3e70+QrmCGq3PehphkLckMDf8dcMhIgfghuhbEgAezTlHZFNYvZwrGbppxkkrLEVBcdRoXdbVCD2YcnExQ1lF+pbkTlNXDTvDkqVVbyMOGmWoi9wBNbqfdTVCA1MilmsBL5VVFH2AR00/vVYbn31S8tS4MRzvm6xF74uCQ9wBgOORq5ViedQBNbqHTTVCA1MyWCJVli/VoG7ZQZZEr6yYfjpqOOQy6/8tugz/oKy9llCjL9lUIzQwJaQ9Zf+FhAQrz/TTX9fGZ/9c5PAdL4bjGYbj7Tf99BIAXMjYaiNqT9kvS5yedFCj7jTSMtygUEw/tVlDqm5pRK5W2BtDBOpKZ1wbr+R05GrHJI11D6afPp/xjb6SNgA8GrlameIu64IabQwamBKjW8PfqI2HocTi0AkANOOAhOww3YciOxqG49Ev1BOGQ4YAwJE5v6QVPt2eGsntMF9WUKONQQNTclhL0lmJb8nV0Ie4yYor0f9eWPlmMv10N3s4h1kbD1XzoF+sPZGrFZKtmwXUaH3QwFQA9gBfV9DmokycYr3BKwlqtDYY5K0A9G3VnrLtvGrR5gx1/0l7yv6zoieSBdRobdDAVISkNfdPkavtKur4viJusGBhI2nN3S56MllBje4HDUzFaE/Zv0/fJgU348/KHQA4056y91Vlt4gH1OguaGAqBn2L0LdJxmzSovlR5GpHktZcEdXplIMa3QUPO1YUlk26AwD2Gw55EQC+VfScumA6DsiPWbX+ngc1QgNTadgBs7MAcN5wiAsAJwTaS+RByJrV96THshH9rhFuU/cQpp8ektzvWAaELheKnkRZ6DeNMAbTQ0SudjYOyG8krfAw28koou5IAgBXk1b4YhyQHWhc7qXfNEIPpscx/fQgK4Go+jBdvNxwi7zaLzEWWfSyRhiD6XFY47DzhuPtBIAndMsepD8s4/QhANgqMOwXrHTkjTggC8sN2Bu8fZwRRi9rhB5Mn8Oaa+1kP/9+jXMsEQDcZP83ilwtLGiqfUuVNUIPps9hB9d6Mb29Z6iyRhjkRRBEGWhgEARRBhoYBEGUgQYGQRBloIFBEEQZaGAQBFEGGhgEQZSBBgZBEGWggUEQRBloYBAEUQYeFehzqnzOpV+YaPJpNFkvj0ZoYPoEWSd1TT+FspzU7TWGxpY12j5gDz48IK7RRPNejeanlzW6PI2nqbsGT1N3Ry/XGukVJpr5ajQ/TV69PJ2PRv1kYJQ1Fi8ThuPpumUf1C17FAB2F9BpsFMtbSZphRfjoNF3dXg3Y2jM07cP2AcfHihWo5uL4cytxfDi5Wl1GlXZwBgA8GuOS8LI1UYUTqlw+q3eaxWZaJZTo8m6Go0qa2Bg+QuVcnw8jlxtm8LpFAb1WvqxYn2VoF7L3rHyazRZl6vRV2UOljeGQ45yBMCoqD9JWnP/onhauWE4nkGXQ4ZD6BvxP5Y4aG8CwHHDIY8AwPWkNfdF0RPKi6Exz6DLob1j1dBo79iyRrcW5WhUdQ/m2hpbdusSB2QPa4ZVeQzH22045BL9z6LnIsDhyNXOFj0J1QyNebv3jlVXo8l6do2qnmjH6849pmgeuaFbw1tNP/UqbFwo75h++q5uDaveNSmE7QPDWyeaqVdh40J5Z6KZvrt9IJtGVfdgJgHA5bik8jtJpp9eAIDRouchiRsAsKfXGuBPNHtPo8m6mEaV9mDigPDu5e9WNBXl6NbwN9iSsFceXGCZqddNPz1BPbOiJ5OV7QPD35ho9qZGE830BPXMeC+utAdjON6g4ZBrnJftqNpuBtuSv15AvkSenIpc7YWiJyHKRLM/NJqs82lUaQ9GIAYDVXu7MOMyq/DBpX/D0wBwBABGAGBb5Gpa54f92wH6cClunXGUnYuqHMy45KrRZF3TOj95asTORXVNpT0YWP4CXgKAOsclcXvK3pG05kq/7qfLotp4GEp8cBMAaMYBCdlD+2EcNLh7I1PPEQCeMBwyBACOzPklrfDp9tTIRUnjKYcui559Tb5G89N3Nbo8za/R0NiyRnvH5Gt0czF8+q9f6k6jXjAw1CO5wHNNHJDDcdAo/TYp7zb8JigLcJt++jx7e8qAfpkerUrgl8VcpGk0WVej0URTvkbdBH6rvkSCyNVmAIArt8VwSKmXSWwr+oKEBzdOWuErcUB2qNw9i1ztjTgg2+Jg6e/azDgcfdNe063hr0uanhLYVrQUjW4uhq/MT5MdqowLZbKuvTE/TbbNT8vTaPvA5hpV3oOBuzVNeIO9u1hLztJh+qkHAFlPfhd2epx5le9mzAE5F7naMxKnJZWJphyNJuvFaDTRlKPRZH1jjSrvwcDd3r2fcF52wXC80iV6GY63GwCOZxhiIWmFTpGlKahXGQdLa3/qXd4RHOYptvQqHUNj2TW6uRg6RRkXWPZoZuans2vEll7r0hMeDIi/9aM4II/GQSNRNC0uDMczDId8luGtMhO52gHJ08qEQDLkal6IXE1W7CAzQ2OesXcsm0aT9XJpNNHMrtFkfW2NesKDgeXArchyh3owwwqmI8r+DA9uHAekdFnKcUAaGbdOPWp4JU4pK5k0mp8un0bz09k1ooZ3rf+h0qepV3Fz628d/i7vdpxu2Y8AwHtJa07UTZQCK7lwBgD+g8Dll+OADItsOauG/V3PJq3wU92yqUv+m5xD6HSY2788O6doil3DSi4IazQ/TYZFtpxVc2txWaNbi+GnDw+Ia/Q//8f9GvXMEgmW3XHqkXwmcGnhSwvTT+nyzhO4NGbLvNI9uKvJsJ1dilo+E01xjeanyaNlNC6rybCdHU/W79eoZ5ZIsBxcjFjQipfR2vhsYQFFVonuhMClM1UxLpT2lP0Tttbn9RYN00/fVTStrmCV6IQ0qopxobz3krhGE837NeopDwaWlxq24RCeWr0dEnayN9eta7Y0+leBSxciV9ulYErKYcbiMO91cUB2xUEj99QCtjQS0miyXk2NmLHg1mh+muy6PH1Xo57yYGBpzR9eZuc2eKHryCu18dnvK5jW+je17IMi1yWt8EX5s8mH9pTdYNmgXOiW/ayaGW3M9gExjW4uVlej914S02j7wL0a9aCBmbvDslZF2jLoumVP53nojlX/56XRnhr5OwXTyYWkNUeXsvt4r9Mt+yk1M9oYVv2fl8Zfv1RdjW4timn08MC9GvWcgVnBOcHrqCczm6OR4a1RE/dCfye2FOUtX2qyQH7ecGtUZBKdLCbrYhpNNO9q1LMGhgUURdfrBgBcq43P/qnkad0Da4rGta2etMI31c0oX5JWKLKUPalgKuvCmqJxaXRzsXc0urmYTaOeNTCscv1IlgQi3bJfMf10VmGil897QdIK/0rNVPInaYXnWbdBHkYNx8uzqBO3RrcWe0ejW4tiGg2NLWvUswYGlt3wOA7IvoxZiku7UobjHdStYWn9bFivaF53/3QvdUpkRzSeYTt4PHxb0ZTugfWK5tZIZafEvLk8nU2jnjYwsPwQtyWk0A8aDjlXGw+56s5swhOcn0+qXrB8LSJXa/LGywyHPK5uRvfArZHKkgtFMVnn12jv2LJGPW9gYNnIXGW1SrImO9VNP/216acXDMfbn2Ug3bJ5g8hZa3iUFnZeiecNmUsAfvsAatSBnVfi1qgvDAwsG5mLcUBkRPaN5TgAmTH99DNW+4QbXgPDylz2JGzZx7OM3alwOl/yMKeBYWUuexK27OPWqG8MDOOs5KLIdH1+gXo0pp/ybmXyBip7Zl2/Djy/X15b1ajRvXBr1FcGJg4aSRyQPYLboxtBvZgrpp9eN/30Um18dtJwvEOG4z2+QVGrhzjv8aGEeZaWOCBc+Ramn9rqZvMlqNEK5qf5NJpopnZZG3ErY3nnonHM9FNd5KzFJlC3cKdu2XXduvv8G87Syixa9QbgaWIViR5onGimdQB4ji3tYgB4mwXtMjM05g3uHSPPr/Ao5uanyWnBg30fc36e/oGFlyTsfNFuptlqT+Vr7N+5NKrKgcYMcGvUdwamQ+RqRwzHe8NwyF8CQB67EmYG157LIGwfGN6yfcD+4d4xcniNLNTRiWZ6dX6anLm1GP4VqwXCxfaB4a8/+1r4CvPcVm7d29Tg7B0jp997yf7xrcW52xzD8n45hfqMM6NIDe5TAPCAyBjr0LMB3hVwa9RXS6TVxEFjIQ7I7yhuViUDLtd7+4D9LP2Sb5Divpv+76sPpnXLs6+FrwPA06uMSwfqKbnPvhZyZUHHQYP37Bh38iMzLtcA4Khk4wK9vjyC5UAvt0Z9bWBg+cGOI1fblbTC4wIZi3nBFTzcO0a6Kkjd7edWwlLnv9vFR492sjk54Pk9uWMwe8fIf+G9hoNeD/B24NKo7w1Mh/bUyBsAsEPgcFcedO1hsdae3W6vDvK2AmWp890srY29Y+Qo59jKvqTsAJ6javwKeMGy4NIIDcwK2NGCA1mChyrg7HLI+2bn/TxPHKlMBdWVJud10+WwH0EDs4o4aLQjVxuJA7ILAN4ROINRNLyxia4/PzTmSTuLVQCVbKxfddDArEMcNBYiV/sDAHiwYjsEvN5X159nB9943tRlikv0yxKmVKCB2QS6PIlcbR/1aJJW6LMHNVevhiepjCVDfd7lxz/nTZ7iKF+QzE+TNzjHVlaGgaXxK1vGTDRzSfwrA1waoYHpEurRtKdGJlih7QdF6oRkoOtlDPMy3uny4++wz3fNZF17tctypDMriz93Cc8ZI66xL0834gxVDruhTM3hVMKlERoYAZhXMxEH5DfigAzFwdJ27xn20KvI5uQKlr73kv0XrLfNem9s+u+n2Oe4ubkY/mgDI3OHGpf3XrJf5hlToIgU99+ZFbIWaWvTDWUKaCtBIO2g3beZvDJgBZN+QX/ioPHlv9Mvi+EspaE/wZLdjIxBRi73+9bi3O3JuvYCALww0UzfYollHU5nrVny1y+N0N/50YlmeoL10Om8vSP6/0/WtfMCw/KekOZObLu1ONeerGsH2Nb8+5JPZffDEolbIzQwClguctWY2ehtafppyjGksHFixkRJESS2XHpV0nBf4/y8cDxlsq4tDI15u9hZJH2tmNpkXQsnmvloVCG4NUIDUxxf8KSrG443WETTsbzIuwDX5elGcnm6sdkOGpdGQ2PeoEDcqTKIFODCGExxfML5ed7yjZWC08DEkauJ9L3iBTVaAWcBrniyrt1AA1McXF8QwyFD6qZSLKxrA8/vx/vFF4VLo71jvavR0JiYRmhgCiIOCK8rrfIcTaEYztIuHE/tlVwMzPw0atSBHYzl1ggNTHHwPrw100+fVzSXwmDtW7h+L97qdxng1mii2XsasfYtXL9XJ4ETDUxBxEHjQ4GdkFMKm8AVguGQtwSS1HKpvXJ5WkwjtpzoGfaOiWuEBqZYRJK+eiahi9Ur5s0fiQWKU2WhrzUaGhPTqFOcCg1MgcQBeZX3XJPhcNdYKS26ZT8ncFmuTeXnp/k1EqiDU1q2D2TTSJM7HYQX00+vbFDacj0ORK6mKuU9F0w/pS73r9Ypu7keceRq2xROa00mmmIaTdarrdFEU0yjyfpdjdCDKZikFYocwHvXcLxvKphOLujW8AMAcInzwaV8oGhKG3JzUUyjobHqarR9QI5GaGAKJmmFFwUuMwyHvKJgOrlQGw//UMAjoEvKQgzMrUUxjfaOVVejZ18T02h+mqCBKROsbapIXOG7pp9OGk61qsyxnt4vCly6kLTCOQVT2hTWNlVIo4lmOlm1SoBDY+Ia3Vq8VyOMwZQE009nBU/kLsQB2cNOdpcaw/F2Gw65InAp/d0e5KxNLJ2JprhG89NkD2/tnSIYGvN27x0T12h1bWL0YMrDEcHrBgHgoOS5KMFwyAnBS68WbVwYPa/R3jFxjdYqfI4GpiRErkbd8GmRaw2HvG766fO6NVzK0/HUczH99ALrBMlN0gpPyZ8VP5N1cY32jpHXJ5rp89sHyqkR9VwmmuIa3VxcW6OvZp4ZIpPrumX/kcB1vwkA9a2/dfhf4qDxCwXzEsZwvP2GQ4IMxZ1mPn91R0PytLJw/eEBcY0Gfufwv1yeLpdGQ2Pe/r1j2TR669DaGqEHUyJYhuphVnZShFdMP31Xt4ZFe2BLQ7eGHzD91DMcIvTGZ5yJA/KMxGllhmWoZtJoopm+u32geI22Dww/MNFMvb1j2TSan15fIwzylhBqJNhDLEobAPZFrlZI8SOWRHdJZJtzBVcjV9sjcVpSoUZChkaT9WI0Ykl0mTWarG+sEXowJaQ9tVScOst5mxoAXDP99EptfPZQXlvZhuOZtfHZSZb9meXBTVgh9dLCCohn1miimV75wWuzh/Layh4a88wfvCZHo/npzTVCD6akMC/guqReQTEAPBO5mpIGcobj7WSnomUUvk4AYE9R3hcPzAuQqtFkXY1GQ2PeTnYqWppG3Xhf6MGUFLYtK2v3hH4RLtClFzvBLGdQxzNMPyUst0VWVf1mFYwL3O1HLVUjuvRiJ5ilMDTmGRPNlLDcFmkadbu0Qw+mxOjW8NbaePjnrO2ILBc6YYWUIla46WO6KtusBALrW7QTAL6mW/Ygq6E7xFnlbDNm2lP2saQ1p6K3lBK2DwxvffY1dRqxwk1LGnVKIKwH61u0pNH2AXuQ1dCVrtF7L9nHbi12pxEamApg+kt9fK5IfIDXI1qjn3RNcv+g9ZiJXO1ADvdRAuu11PMaTdb5NEIDUxFq47P7dcs+rbJ/c0HQt3Wzap7LWvzgtdn9Dw/0rkY8nksHNDAVggV+r9H/LHoukqhMQLdbWOC35zQS3U7HIG+FiFwtbk/ZDmviLproVRauxgGxe8m4AAv8vvdS72g0P03sLLk66MFUFNZhoBRndAQ4E7ma6MHBysA6DFRWo8l6do3Qg6kokau9AQAvZOnRXBAzcUCU9MouG5P16mo0Py1HIzzsWGHioHEVAN6m6+Qt28zBHHYwRKHr+MtJKzz++as7GklrrupLh665PH1XI+Nr5dfo5mJ4/K1DOxq3FuVohEukHkLCGSYV0PX7SEnquRSOhDNMKljSaK16LllBA9NjGI43qFv2s7plP1XgTgZ9UD+IA/JB0grnktZc6Su55cnQmDe4fcB+9uGB4jWanyYf3FoM524tqtEIDUwPY/opfXhPihYREoA+tITFh5AumGgWoxGLDykHDUwfwNL8v2045HFWvnGnhDdnzBqcf8KOHHyYc8fFnoKl+X9775gajdiRgw83O24gGzQwfYzppzY7APcYO2y33mG4BVa/pNOruRm5GhqTHJhoims0WS9eo/8fAAD//7BDnqfZ2hPbAAAAAElFTkSuQmCC;" vertex="1" parent="1">
                    <mxGeometry x="410" y="250" width="80" height="80" as="geometry"/>
                </mxCell>
                <mxCell id="21" style="edgeStyle=none;html=1;exitX=1;exitY=0.5;exitDx=0;exitDy=0;exitPerimeter=0;" edge="1" parent="1" source="22" target="24">
                    <mxGeometry relative="1" as="geometry"/>
                </mxCell>
                <mxCell id="22" value="Set-up node" style="outlineConnect=0;dashed=0;verticalLabelPosition=bottom;verticalAlign=top;align=center;html=1;shape=mxgraph.aws3.android;fillColor=#8CC64F;gradientColor=none;" vertex="1" parent="1">
                    <mxGeometry x="570" y="248" width="73.5" height="84" as="geometry"/>
                </mxCell>
                <mxCell id="23" style="edgeStyle=none;html=1;exitX=1;exitY=0.5;exitDx=0;exitDy=0;entryX=0;entryY=0.5;entryDx=0;entryDy=0;" edge="1" parent="1" source="24" target="26">
                    <mxGeometry relative="1" as="geometry"/>
                </mxCell>
                <mxCell id="24" value="Cache node modules" style="rounded=1;whiteSpace=wrap;html=1;" vertex="1" parent="1">
                    <mxGeometry x="730" y="260" width="80" height="60" as="geometry"/>
                </mxCell>
                <mxCell id="25" style="edgeStyle=none;html=1;exitX=1;exitY=0.5;exitDx=0;exitDy=0;entryX=0;entryY=0.5;entryDx=0;entryDy=0;" edge="1" parent="1" source="26" target="28">
                    <mxGeometry relative="1" as="geometry"/>
                </mxCell>
                <mxCell id="26" value="Install dependencies" style="rounded=1;whiteSpace=wrap;html=1;" vertex="1" parent="1">
                    <mxGeometry x="890" y="260" width="80" height="60" as="geometry"/>
                </mxCell>
                <mxCell id="27" style="edgeStyle=none;html=1;exitX=1;exitY=0.5;exitDx=0;exitDy=0;entryX=0;entryY=0.5;entryDx=0;entryDy=0;" edge="1" parent="1" source="28">
                    <mxGeometry relative="1" as="geometry">
                        <mxPoint x="1210" y="290" as="targetPoint"/>
                    </mxGeometry>
                </mxCell>
                <mxCell id="28" value="Build staging" style="shape=image;verticalLabelPosition=bottom;labelBackgroundColor=default;verticalAlign=top;aspect=fixed;imageAspect=0;image=data:image/png,iVBORw0KGgoAAAANSUhEUgAAAgAAAAIACAMAAADDpiTIAAAAA3NCSVQICAjb4U/gAAAACXBIWXMAAA8tAAAPLQGMaW13AAAAGXRFWHRTb2Z0d2FyZQB3d3cuaW5rc2NhcGUub3Jnm+48GgAAAwBQTFRF////AAAAAAAAAAAAAAAAAAAAAAAAAAAAAAAAAAAAAAAAAAAAAAAAAAAAAAAAAAAAAAAAAAAAAAAAAAAAAAAAAAAAAAAAAAAAAAAAAAAAAAAAAAAAAAAAAAAAAAAAAAAAAAAAAAAAAAAAAAAAAAAAAAAAAAAAAAAAAAAAAAAAAAAAAAAAAAAAAAAAAAAAAAAAAAAAAAAAAAAAAAAAAAAAAAAAAAAAAAAAAAAAAAAAAAAAAAAAAAAAAAAAAAAAAAAAAAAAAAAAAAAAAAAAAAAAAAAAAAAAAAAAAAAAAAAAAAAAAAAAAAAAAAAAAAAAAAAAAAAAAAAAAAAAAAAAAAAAAAAAAAAAAAAAAAAAAAAAAAAAAAAAAAAAAAAAAAAAAAAAAAAAAAAAAAAAAAAAAAAAAAAAAAAAAAAAAAAAAAAAAAAAAAAAAAAAAAAAAAAAAAAAAAAAAAAAAAAAAAAAAAAAAAAAAAAAAAAAAAAAAAAAAAAAAAAAAAAAAAAAAAAAAAAAAAAAAAAAAAAAAAAAAAAAAAAAAAAAAAAAAAAAAAAAAAAAAAAAAAAAAAAAAAAAAAAAAAAAAAAAAAAAAAAAAAAAAAAAAAAAAAAAAAAAAAAAAAAAAAAAAAAAAAAAAAAAAAAAAAAAAAAAAAAAAAAAAAAAAAAAAAAAAAAAAAAAAAAAAAAAAAAAAAAAAAAAAAAAAAAAAAAAAAAAAAAAAAAAAAAAAAAAAAAAAAAAAAAAAAAAAAAAAAAAAAAAAAAAAAAAAAAAAAAAAAAAAAAAAAAAAAAAAAAAAAAAAAAAAAAAAAAAAAAAAAAAAAAAAAAAAAAAAAAAAAAAAAAAAAAAAAAAAAAAAAAAAAAAAAAAAAAAAAAAAAAAAAAAAAAAAAAAAAAAAAAAAAAAAAAAAAAAAAAAAAAAAAAAAAAAAAAAAAAAAAAAAAAAAAAAAAAAAAAAAAAAAAAAAAAAAAAAAAAAAAAAAAAAAAAAAAAAAAAAAAAAAAAAAAAAAAAAAAAAAAAAAAAAAAAACyO34QAAAP90Uk5TAAECAwQFBgcICQoLDA0ODxAREhMUFRYXGBkaGxwdHh8gISIjJCUmJygpKissLS4vMDEyMzQ1Njc4OTo7PD0+P0BBQkNERUZHSElKS0xNTk9QUVJTVFVWV1hZWltcXV5fYGFiY2RlZmdoaWprbG1ub3BxcnN0dXZ3eHl6e3x9fn+AgYKDhIWGh4iJiouMjY6PkJGSk5SVlpeYmZqbnJ2en6ChoqOkpaanqKmqq6ytrq+wsbKztLW2t7i5uru8vb6/wMHCw8TFxsfIycrLzM3Oz9DR0tPU1dbX2Nna29zd3t/g4eLj5OXm5+jp6uvs7e7v8PHy8/T19vf4+fr7/P3+6wjZNQAAJVBJREFUeNrtnXmATdUfwM+b1Qxj7Ps6dopQ2kR2bdZERJIlhPy0SEIRsmbLFilrhagUkiwJCVkjkn3sw1hmn/v7g2Hmve8595x7z7vLO9/vn3PPu/fc8/nMe/ee8z3nEIKBgYGBgYGBgYGBgYGBgYGBgYGBgYGBgYGBgYGBgYGBgYGBgYGBgYGBgYGBgYGBgYGBgYGBgYGBgYGBgYGBgYGBgYGB4efwRBWtVDYa20GtKNBk4KTPl63ddvB0fLqmaZqWfOavnxdNGtyj1RPFsHUCO2Jaj1h1RmPE6W8GPJ4N2ykQo1SniRuuajyR/MfkF0tjgwVUlBiwXROLcyt658V2C4wo1n9rumYgkr55Jhhbz+1RtN8WQ/RvR+yYStiELo7I3ptN0L8d21/LhQ3pzsj+9gVNRiQsbuLB1nRd5Bh4UZMWu5pig7orogZd0qTGhkexUZ0WYdVoHXc5B1/WpMfK+7DJHRRV5+xO1rQLawaG+xyKHnJF80ekzcfuIadE6JDkDCwHH/Y61vaS5q9InoqdQ46I8rszUUkdFZTpUJ4lmj8j9hlsffujYmxWKnPvGfBMrObnmJUDATiM/z0Doj7T/B//1kYEDuOfYUC945oVkfZxmNvbMDh3vuhA4q9pc4NIxKR0zaLYU9XF8Es8P3bjDU3TDk6tEjj8NW3uo4c06yKpvyvZRzcctDJT+6XOzB0w/IUjPfbInt/XrVw8Z/K4uT/uPJ0i+vnpbhspztFp3t8+X5H7CqvI//wvn3R9JCrriT15q9TvMG5rEv9Zvo90Ubt56n9xA36izasW/8Qf+9XPz7hAtife+Y63H+mPAm5ptnLDT1DvYqZC/K8ueiGK57+lYtef0njOd6yCK373u21hvtJUV4T/6WmNQvkvVfTdwxznvPy449us8eIEnZuYoAL/tK8fFU7peGz2Nf1Ukeed3WS1f9dvm38Cn3/C9LKGrhjZ8Vfdd4kuDm6xSiu4mid7gPO/MsLEw9qjP+ucPbWZUxus8KxUvgbKH9D8T/Y3OXZTez37Arec+RwQNfwmbxMVDmD+twaGmrpseLUOo37QeYq64sAO1dA+/OmwFwOY/7qyJq5ZdcDXB7n6B0+XcFpzPXdUoJG+C1j+lzobvmChjl8KXPJvZ/WmhX0i1Ew9A5X/QqMPN2WH7xW81FYn9QrH7BAb1soTmPz/M5jIn73zJgNXWxXimNZqfVWs6ssC9P//iyBDj/xzrxt72XjTIY0VPlW05s3dzP8AY/BurrABnta7DXc1XivoiMYqu1P4QYnymlTotWUb96wd2cjR/LdFN5NnQFC7/WYGmqY5gf8L14TrPQU8Ua65GaNhO5o4mT8hsgwIfslkPtERBzz9TzdQ74egMz2SeRWd95zMn23A59wGPPWP6SwT218Fw743UOu/wR6QuCxlpjqZvxQDinwtIc2ojt2Pf6uM1PpdqBf5rFehXk7mb96AoD7XJPDXbM6ryPaToWHy4sCphvlMiKvtZP5sA+bpGlDzTzlJpvauMJhtjaFK/wKcKne8T7FzRZ3M35QBwcPT5PC/Hmon/wi9UWvtT/Ap52XgXD2BctvDnczfhAGF1suaKPCpnfwjf9Gp3a5mOW8Bf74BDZVvg04wx9H82QYw+gTryZtJaufiEdl1Epf+auEhXaAD84GTVXDGkJEYf2MGeAanSuP/hY38c2xk5/y19hBCNkCHoH6+kZQxo8qO5m/EgDyr5c0U22bj8sJBa5kpa2MjCCGkFDRt8jTQLkEnaSOeQY7mL25A8YPy+O+xM6vqA1bN9t3p6RsMHfwYOFtD6qn6O5s/24AvfQyockoAcOy6r2aNHdynU/MGz73Ua+CoaQtW/5fp5SFhkJ1vAI0ZrzHJwzLmsYPvAFAu23zqyW7GOJu/mAGPcS4jlbJ3/puNoKziiGpthyza8c/p2OU9i9v5AlCMsRji3vvvdu5Dh3dCzxM3xToNnMRfxIBnb/HQ3/dedaevBBHCmPb17b2XvE+h4/2A83VmtUc3h/NnGzA/kwGvcCR7HvqgMnF+jKffwIf35kKFQd93KVDKHPOF8mpRh/PnNaCj7koix0Y9QNwQLem/2G0yFWsNlfgeOF8pdst87nT+fAY8p/f/v7MJcUfEUPP/TmQZm1oJFWkDnPB9dsOkVnQ6fx4D6uhM9PinrVuWBg/fRbuHw1neS/MlA0XioO59vfkE3zieP9uABcGEVGcP/p7pEULcEtQMoKNZf6z7QGWghSEe1/tpTK/peP56BpQ7z7rBuIERrsFPHqbdxXGvqUrgRAFoSuMs3Ufj1c7nzzbgG+ZKgpNctWjWb5S7OOW1pHUl8EsC6tvgmFJQx/n82Qaw/v2buwk/eZ5yG2fLeRUcBZUaCpyxHUcjbXYBf4MG/OmuteDDKA9s8d4dvEFQp3c61K/LlVVWxwX8DRnwabir+JP+lPto7V2wAVRqE3DGIlyj44vdwF/cgOvt3IWf5KYMZviO8H0BFesKnPItrpZKKuAG/qIG7LNxwbeoNvNXTenfXLCbdQJlwMZn/dLs0GzHBKhNOWdGDXQFfzEDFtk3vfvR1XfqmfbzSwK1KAPf3Unf/v2OULklwClrcjbWsSBX8Bcx4Ksg2/g3yzwsGT+3Lm8n5FLwRhKBiV5gvvDTwCkn8zZXU3fw5zfgB/vyObp6P3f992EZns9RuuyAaXxFoXyRc0BvZyj3TksrXcKf14Bf7cvnA1/lf+umf9Ngiqd2EMheeAcqCC0O2gIqeBocEiriEv58BmyzcQugrXCVEhY3Za9FXx7+XF2g6AGoIDTW/S1UsBM4Z/o1t/DnMWCPjb2/jMeus2NYEw3g1O15vJfYCxQERwyvZ38b+vwq1/DXN+CwnSt7fM7OSuibj/K54DNQ+UtQ8UlQSWg9mz5wAkhBKHciIbtr+OsZcMLOhM4QvbU8k1e0BHMSnwJLvwpdAlovMhVKYgenyD5J+WVo4R7+bAOSbF3wvwrHE+qlKQ/6fvAb8LcMeoN8jndIF6zLcQ8hz0IH5riIv7xVZKRHe763rgPveHUS5gVv6EXoEqAq7YGCY8C0UtrPzfkgF/F3rgEf8754p61pH6H3c/0v9N6QOxEaLgQ6HIPPQucsSwghH0FHHpFx/6Us4u9YA0TWdLj22RN3v+J3c7+a9QDvGCjYFOyQuN3pDCUKvy/h9j3rreLvVAPOiQ1Y/jv09hj+A+DkNbA3awvlyc4nFjPmgaz3U2dgT+v4O9OAgsIpC+mbXs1J6bN/G7pCWdqTnXdEJzBGDKHEg9Pmb7/4dQv5O9KAJkbS1m4tfArqs7+WE7oCOG94BFCwGyvzA5xXWMj07feylD/bgI9sEeBtTV7MBX9kj0FFywMlf2MN+oVDT5LPmL79z6zlzzQg9SE7BFgoUYDG0AWeAJuX96fibDBrxGKI6dunTWpJLeuvBmcYsN+OScAH5PG/AI4dzYaKQos+fggVHHP38AS/PAVSHwH25rfBABtWe88mb4EieImybNAUKGh7CA84V+JecnEbvzwF/qU5yYBV1gvwoMRfADBVG8zyXw4UfBJMkr93vBh03PQg+jzNSQacs16AV+XxPw0mkv3IO4wDDkr2yVQAmlhgep7wG5qjDLB+odfJ8gRYCAlQEPqJgbaHANOGkzOPLUNraTcwe/8xt+wwIP8RyhWrWi4AtDXRlzuNGfDvMN+JPv+DCkIrv4Npw9/qnepl0w3wpma9Aflp24ElWD8nHJqIGUPuG3vWmAObvTMJwYesWkBF1un+VECpi4NMN0DwdssNoPIH3479G6WgcToPISS4qe6G7xSJlzyV6W2wKlQE2h6iOJQ2fDHLT0UD3hcPsaiSYLEBdP42bIoBJeFmzLyN7rrZ2NdA7Li7P2XjNM5/20FQwclZitTw03BQP81SAxj8b5WzXIChbA3LfHDMmAN/9S9ICGWAPx3a4/YwdJasC4HEsF8TDUfIJSsNYPDXBlj/FricPv56p3umzpx4Qwqk/PBCNniAfz1QD3CoZ3/WMrmBIv/IaAR2VqxcA1j8twVbLwD0D+49JBHZYY2x7SziZoJPdp2BeoDrDL2VtUwQkBNyTEYjjNcsM4DF/1SM9fxzAm2aCqxPVPQdeWta3wR678Kv8KQNx/mWOSmjFaZpVhnA5F/Wev6kNlCRg3DRh6ZckiPAAuDkUD+/9hPH19VZGa3wmWaRAY7jT15nZGD4RFjLFckSBIC2h/gBKuizWAYwdHtBRiss0KwxwHn8waFa1soL+fqY3tzsDJD4BE78ueqTXwhsSXRFRivw7NYqwQAH8id/MFJwaP0mH58xJQC0PQTYXzzLpxiQEhIvoREe56q3aQOcyD8YGgnR3XYkuMmiW8YFgLaH2AMV9F1C8l+g60RCK8zRrDCAxR9OprUgoLUbz3O9Pby6Kd0Y/8vAdGMwwxzYBvuGX54BclzXLDCAyV9L7WCPAFCyxlrOz8YM+9eYAjv7ejfkRKjYYJ8rRgKlDphvhF7cNTdhAJu/bQaMBqoylvvTnic+M7bdcfLK1pmzH0OgdZPTS/pcrzRQbKPpNqh4Q/O/AXr87TIAWpPTqyIhj743sVejUpQTRLRfbayT8PK0h++e5DnO/mJoVeplZpsgcp9ItQ0aoM/fJgOgaZFZfqOLLr3zA3lkGO05tcjbBvOKDw26syoCuNQYkOkBiTLTbBPMFau0IQN4+NtiQAGgGomZc1KaZe782/Y67eZrTr5oSIG0XzplJyQPlB8HbSfcFSg3wmQTdBatswED+PjbYUAj6BEt0/FRPgN87Sj7GIS2WG6sk/DGF/Wh3khwD1woZeANrhvNVuu17g8D09GD3oeT4pPPSDSAl78NBkCr8s5ld5DEz2tImcKY9/Udxn4KwPfJ+sAVJuk/sYBRb1eKpmla2j7vLq4CtN1up5c9Jc0Afv7WGwD1gfe919+zm9KXO462lVnl0acljRiegBKMN3FmF3o95U2+Z9i8LGux1aXlPSYUJWVkGSDC33IDoAfgujzvx/sHloDPGNR44S0ZAkA/7dDs0HTdiSFls6Qaxd5dnDak+UrqnKgJhMgyQIy/xQaEQ0MwuVgdr5lafkPXXPBZo7psTDctADR3GBq6Pq7L35vj/EY5chcu9eA4xp5N1/MTWQaI8rfWgBrMFn1Mr6qJS1tQJrOWHnrUHP/fCeczoN5curJGfpPuTNOXYIA4f0sNeIWZZTudo7JXZtSmrCtee/Y1EwL04O21GuMH/nEZX22mDTDC30oDoKfqDzIOhl3mq+5/IyjT8yLa/WR04nEi9OsSfI2vu8gsf63/3c+XOWnKABb/47MdYAC01nerjIPN+VvszzcoK7UUfmufIQG+4v3B0h6Uzz9zQlSMGQOY/EvBI2DWGgDkWGp3E1O/EfrWWv0SZd3eGpMMdBJC+0iA0zdSWJublDPEf2eWri4TBujwJ/YbUBLq58n4SY9OFO3SW0BZWz60+TLBnbNiwRNBIwZbpPM/5zU/27ABuvztN6AZcOHfWP3uuo33CeUbOU/vP0TOMw46RzC03vQw2fyTHvNJezBmAAd/2w2A9mifyno+4BnhG0zZ9rLSqFPcJ7kfOgH4TFJbMn+tC5D4YsQALv52G7AMuGzGrLASxvtytvTMA3cSNlpwk+sEu8CPQwvaxlNn05czlrg6ETqXAQM4+VN33bPGAKizJmNW2EAz3TjJK9vA+x9FvbKBQ6x+4BM99MHv5PJPpyw9HHNC0ABu/rYaEMWaFbZfMxdXp1K2GSn1/hE9fcB/KnD6Xl+p/G8+T2uq0mIGCPC30wBosDdj5Ybq5odzLvegrXz7+Czm9vDgjP8IsFuqEnyB8ob4n65BbyshA4T422hAP0YnyHhNQvweQc3PaPsjvZOwDnfizlGZ/P9gTocQMECQv30GLAIueGdWWPBZGQIwd3Qp9CalncDlhsEZTJR1Yg3xT5sVwW4tbgOE+dtmADTa25SeKqYZGOd/iVmB6p8Ar/YX80JFwdUs00tJ47+umm5zcRpggL9NBuSHLnenTx/c6b111TGnBNv1Rl52HUKeW+rVSXgL3ggMTN3dIIv/Qa41x7kMMMTfHgOepScDREJzpeLCCQmqN0dskPd53Wrk6ZV5lbZ9VcBCFcGE01cg/uI/Xhd7cq7NV+q4rgEG+dtiwAj6MyC4jdjsO89vbVYKpP9yrXpWceSdb5ZzEynbJ4O7+tyMksJfu1KDt8l0DTDM3w4DoO3c7yzMC67uey9XMG/PLbyNu5+zMsUa9B7XpTztaAfw3PN9C1Yw9PAqzQAT/K03wHOVOrpeAEoVPJkl8yfm/UNcbXtNRlWj4W3dGgjx37be7wZUNsPfcgMqQ8/5t9fl7AvVYZT3CR6adF5fgB0yqjqFc8SAyT868hd/G5Bmij+z88UPBkCUN90+BM7vAJ7Ogpsu0JtYO19CTWvADdtajD8h/jfAHH+LDVgNXGX07YaEKrAbPkv2l1Yz8/7ML+VMguC1nA96BPnbaEAC7/p/FhoQAS2Q3JwQQshw6Pr0vWwKvcFYNuph8zXtwdfHpM9fjgF5Rt8Q/wbg3hDQOgOehq5RgBDKJm9pRZjvcSP+gystYR3XglfAM3tvUcy3/7NpA3IONZbs7jwDpkKNSh0k1NbpvVPU3gZ9bKjpeoZT3ji7GeFv1oDIdy5rBsNxBvxLfWKbAV27s+4Jwfxv82ufLYLb4lSYIf7mDHj1nGY8HGZAeej83QmhzAe5FaV3wmrQCbearucHlKbolPW5TGD/d8MGhM40NzTqLAPALRKKEgJvIAFP1MgSY6GP9TZbzQ6Uhtic9fdHaP93gwbk32R2cNxRBkCruN/eegFcr4e+MkjGuxqUg5uSz2Qta1PmJqRm3VpLcP93QwY8cMJ8eoSDDCicRkuvyEWbD0JfGYQQeDcf7QeTtSxDm1P0SZZiwvu/GzCgzU1NCyQDwKV5HyCEkJcZ9aevDAJvudHOXCVz04YbYrPuUS++/7uwAcM0OcFtwDg/GwBtC3hS78qaRl0ZJAJ6O46PMFXHMOove8esBWeL8hc2oK+mBZYBFelD99/p3QK4MkhbqOQ8U3WMWkerwSavkn8K8xc0oInE7bWdYQCUC6I1JoTwrZyfuKyl18ogoDYNzVSxAHXv0mtlvIpSHgESmFm+AgZUuqppAWYA1Nkbf5tpLGcOxcwnMg3G5INyhM4EmahhDH2JmRe8y9L2f/8lUooBeY9qWoAZAC7+8/XtY8v5hzg/qsR8DBtnooYP0PvcpvsUpq71KsWA0F+NUI5NcrIBnzJG14Sed3b2v/01+zt0sLrxCtajj7j85Zs12EfzpwHjjPA/VbaZgw2Igpo39c6M3qpid5q6plMOUgY6Ynwdf09v+toU14G8Qcb+7+YNKJ9siD8hDjYAXJr3x4zWXyN6tzcXgQM27xqtXrG1jIu1hz4xQPOfASsM8newAR5wk967CVYFYjUZkV7CYPU6xjHOOgPuh97qNwPqsu7xxNIFc6YtvArzd64B4G6+F+5t094gTYYABjfyyL+MddLvKFvrVrjiJwM89GSnxCWNb0MM658I8nesAWDS//hMBVqdkiBANyNVyzeEuaLYFmrXYg0/GdCRiv+dTKugVMmcDPNj0XsHHGlAOXCJjsqZi2QfmWSWf2Iu8ZpVmMGefnogD/2zfjKAlmd4LOu29kH9M8aK4rJOV5NiwFi5BkyGTuS9NG/JIYfNCbBcuF5PfqezeMyp4qyP+8cASqzw0btUn9nbL22d2sV7wUznGRAVD53nVd+CtSZfMCFAK7FahbTX3ZD2SmX2KSw04C2BO3OcAeDiT9fBRfdDnl5kdBQ8LlykTtFvntR/2XxM7yyWGTBZqMEdZkAUuAM8dSWPHJ3WGnonmCVQpZIT4vVPeJFjgoFFBmwPIy42YBB4DtZ/V+H/7RIXoA53hWp9xTPWeqwcz7ksMeBySdFfXScZEAXmtR/U+VTlkYIJcSc8fNUJarGZ63y7CvGdzwID0p8Vf+52kAGDwRO8rt97WGdWnIAAI7kqE9nrCN/p1kbx3p//DfjZSP+GYwzICbbPea7UrfDW33L3DlTmOF/xkbyzbBaE8je13w14kbjZgCHgpwfy3kbuHpu5VhDerX+q+su506zGeESa2s8GxGUjLjYgF/g1HpdT4EZKvfe3fisN0HsS6X2Qf1Cpn2BT+9eAaUbHOB1hALwGyXDBW6k5UWe8kD2TmFScEs//NHGsrnBT+9WAJ4itBowxZUBlaOkf7Yb49J3gJvNZc+RXsz7aYp3I68SMHAaa2p8GVCQuNgC+uwmG7iZ7B+qOYOkP0Uf7Bgq9T55qbKyp/WhAaeJeA9qAn0oqavR+CvaD94peTPvAQ1+IbUP0ebTRqvnPgMLEtQZEwv3tM83cUcXhvgnmJ+BBu/BO28U6k84+a6JifjPA3HRXWw0YAX8kxtQdEc/jM7K+zh8BU8FKjBQcWrw+Lo+pevnLgGeJWw0oA3/9LiCmI6zF0rvnTvsa+o5s8K3g3KqL7+c2Wys/GbCEuNWAVWD55HJERkR3/fpAipZ86PNK5l767/yI9I2UUCc/GfCMSw3oDBcfR6RFaHEoY7PS1HhB/AdeDpVTIf8YEJvLlQYUh+c3Xogm/ozglusE6WvbWnikXd4/BswibjSAMteiuz/x539XeFWVNU9KrYFfDEiv60IDXoNL/hXkP/y1vhTdezhxXjXZlfCLAduIIwz4WMCAGErH7ZP+oh/e6Q/Rf/7zwwr6oSL+MCAp1G0GBG2Eiy31E/4So4Q3jN/zSrh/6uIPA6oSlxnQn/KVW9ovTd5Q9KVfS/++vv9+ikwYQFujqBNxlwEPJprJ2xKLqNf/Fv3nj5tQlvgzDBtA3f+lM3GVAXkpy9ufzSG9rStPixf+7u8eSfwcBg2g7/9TlbjJgKCfKAVekv7SLzzFKnnJE8SCMGQAnX9CCHGTAbQlDldKfukfdFIU/9lhhYk1YcAAxv5fm2VVyxIDmlIm9lyS+tL1sPBLv7apbSixLIQNYPBPe4S4yICStNTrNvJaN9vLO0Tp35xVlVgaggaw9v+TOHzifwO60NAslnYPJUcLv/Qf6Z+LWB1CBrD4H85GXGQA9ec3j5z6exquEH3pT/uhqYfYEAIGsPifkvzOapMBz0ipfM4+h0QvfHlsaWJTcBtgJX9JBowWxPCZjJoXHntdFP/OLhHEvuA0wFr+thhwPKf5apeeLvrcn7TwUWJvcBlgNX8bDEg33/Ne+csUQfynBhcktgeHAdbzt96ACWYr/ODydEH8v7YOIU4IXQPs4G+1ARtMsqgrupbs9U+rEKeEjgH28LfWgJMFTFX16d8E8R/qk5M4KJgGlLSJv5UGJDxo5rW/zW4x+qkrGnqIs4JlQJJd/C00oLOJSj7wu+D0jlElifOCZYBt/C0zYKrxGkZPFuv0+6NTOHFkGDDA//wtMmCT8RG4jkIbJyd+8RBxbAgbYAV/Sww4bfhd/L6NIg12YmA+4uQQNMAa/pIMGMX6t6xlsGZR4wX6fdJ/bh5MHB5CBljFX44BkYzZOF0M1qvdGf7Wuja5InFBCBhgHX8ZBkQyNlL/0FilKgqk+u3vmYO4I7gNsJK/eQNY/I29AESO5t41K2VpPeKe4DTAWv5mDWDxX2CoR6bKAV7854YXI64KLgOs5m/OABb/7w2NAHTh3S/g9w5hxG3BYYD1/M0YEPkr/ZMbjWSy5ZjPR//WnBrEjaFrgB38jRvA4r/TyIBMVb6ErwuD8hCXho4B9vA3agCL/6H8BqrRI4HrIalfJHFvMA2wi78xA7JvYIwAFzfQ97OEK8G7axhxdTAMsI+/EQNY/C9UEK9BdZ6tHPa+GEzcHlQD7OQvbgCT//3i1+/NkfG5rZmHBEBQDLCXv6gBkvlHL9XH/0sDEiABGmA3fzEDsm+Uyr+U/qahu2qTwAnAAPv5ixggmf/9ukM/ca8HExLIBjiBP78BkvnX1tsdLH1eARJg4WWAM/jzGpB9k1T+zfTe/vc8TgIvymXevnBVUadUi8eAHHL5d9HJ+7vWL5gEYnj6ZCyleLmjg6qlbwCL/0Vx/gN1/v3nFyKBGsW7Td9+cfOkzs76fdMzQC5/z0Q2/n11CIajDMixWSb/0AXslR2GhSAPZxkwTyr/7D8x+cfWQxiOM0Am/7zbmCf8uSCicJEB4vyLMZd4TR0chCBcZIAB/szRvzN1kYKbDJDNf3V+ZOAmAyTzT33XgwTcZIBk/qdrY/O7ygDJ/Dfnw8Z3lQGS+a/Ihk3vKgMM8D/KON1nwdjwrjJAMv+PsNXdZYBc/ml9sM3dZYBc/kltscXdZYBc/vENsb2dF+0s43++Jra284K1qbVc/sfKYmurzH9fIWxtlfnvxdEf5I+hLH/tdWxtpfl77z6PoRh/NEB1/miAq/hXlc8fDVCdPxqgOn80QHX+aIDq/NEA1fmjAarzRwNU548GqM4fDVCdPxqgBv+/Z6ABSvMvRCaiAeryP1iIEDRAYf63F39BA9Tmjwaozh8NUJ0/GqAg/wNZF39DA9Tmjwaoxt93YWQ0QG3+hExAA1Thvx9eGB0NUJs/GqA6fzQgYPgXN8YfDVCBP3v+LxoQ4Pz36c3/RgPU5o8GqM4fDVCdPxrgIP6XpPK/zrv+ExoQkPw1bUEwGhDg/P9lZ3qjAWrzRwNU548GqM4fDVCdPxqgOn80wBX8q/mPPxqgOn8BA8ajAYHIHw1QnT8aoDp/NEB1/miAGvyPJKEBKvPfm78ZGqA0f/Z+g2hA4PNHA1Tnjwaozh8NUJ0/GqA6fzRAdf5ogOr80QDV+aMBqvNHA1Tnjwaozh8NUJ0/GqA6f0kGjEMD3MofDVCdPxqgOn80QHX+aIDq/NEA1fmjAarzRwNU548GqM4fDVCdPxqgOn80QHX+aIDq/NEA1fmjAarzRwNs4v+A6NlK+Ik/GqA6fzRAdf5ogAv4H/Mnf0kGjEUD3MofDVCdPxqgOn80QHX+aIDq/NEA1fmjAarzRwNU548GqM4fDVCdPxrgP/6XXcEfDVCdPxqgOn80QHX+aIDq/NEA1fmjAarzRwNU548GqM5fkgFj1DAgEPmjAarzRwNU548GqM4fDVCdPxqgOn80QHX+aIDq/NEA1fmjAarzRwNU548GqM4fDVCdPxqgOn80QIh/9cDjjwaozh8NUJ0/GqA6fzRAdf5ogOr8JRnwsbsNUJk/GqA6fzRAdf6qG4D81TYA+attAPJX2wDkr7YBcvmXdDF/NQ2QzP8/N/NX0QDkr7YByF9tA5C/2gYgf7UNQP5qG4D81TYA+attQATyV9uAr5C/0ga8j/wtMGC0Yw1omY78VTag2g3kr7IB+Y8jf6UN2ID8lTagDfJX2oCQw8hfaQN6IH+lDYg8i/yVNmAQ8lfagLxXkb/SBvRG/mobsBqsQxzyV8SAHIlgDRpmfU5E/gFrQCuwAv3uFag8YPE/6ZfXjmzmQf7WGZBS06o7mQvewr1OoqEpGX/8tRTyt86A/eHW3EfQeeDiCUUzDt+3M9Ofr3dH/tYZMNqa23gEuvb4jKMFLmY98Aryt8yA1FyW3EV36AvgLrPlXkeuFkf+lhlQ35KbGApceVXGwQ4+h9Yif9kGjKKd4S1L7mEGcOXXMg6e8j3WAPlb9R2wxJJb+A64csb3fBHg2CDkL9kAz6eUzy+05A52+F74Wsax54BaLUP+cg2g8tf+Z8kNnPa98OGMYx8AtTqB/KUaQOev1bWi+p4U3wtvzDg4HajVLQ/yl2gAg39yTitqnw248k8ZB6FMoa3IX6IBDP7aEGtqDyQD7Mw4VhOo1hTkL88AFv8/Q6yp/N++lz6TcSwMuLHOyF+aASz+iVUsqvt6YCAqNOPgMp9j8UWQvywDWPyTmllV9YWsPshCl7wPdUP+sgxwBn8yjjUWRNrSng+Rv1kDWPyTreNPBmiMjgDvN8EjRZG/JAOcwp+8ANWgyb3jrS7c/Wv6lEjkL8kAx/An+dKAKuzIVCD/wmu3h6d31cfvf1kGMPk3t7baW6BKtMxS2wrtP+77WCS+/0kzwEn8yUCoFmeKMD6B/E0a4Cj+pApYjx0RyN9fBjiLPyHwev5f0bovYpC/OQOcxp9MguuyBs5JrHMR+ZsygMm/hR1VrkupzeEKQOHuycjflAHO40/Ir5T6JIzN41Wy1noN+ZsyIMSB/EktapXihpS/Vyy04VIN+Zs04KgD+RPCAnto7MuN7itZq3mvJVc15G/eACfyJxVSNLOB/E0aYCd/QmYif5sNSG5pa32L3EL+thpgM39COiN/Ow2wnT8hE5C/fQY4gD8JXoP87TLACfwJyfUP8rfHgORWzqhuxavI3w4DnMKfkKeMdF/8hfzNGZDSyjnVfTRWmP+y7EjZlAFO4k9IsT/F8KcP8yBjUwY4iz8hEYtE+N9ojYDNGZDivBYcmMbN/3g1xGvOgBQn/gc9dZTz6/8rfPwzaUCKM79BQ7qf5uD/Y3Uka9KAFMf+gmYbcFEH/6baiNWsASlOfoKKGhrHwL/jKWRq2oAUhz9Bh9QbD24llrS2bwwCNW9AyvMuqHW5/usTstT67OetoxCmDANcwZ8QQkjuSvXbDxg348OeLR8pGY4cjUfDzKuunsUfUfUievZd/vNyY3OoGPVn7UjUknbOboxNoWyElAnDRsDAwMDAwMDAwMDAwMDAwMDAwMDAwMDAwMDAwMDAwMDAwMDAwMDAwMDAwMDAwMDAwMDAwMDAwMDAwMDAwMDAwMDAwAjY+D/OwI/adckCDAAAAABJRU5ErkJggg==;" vertex="1" parent="1">
                    <mxGeometry x="1050" y="250" width="80" height="80" as="geometry"/>
                </mxCell>
                <mxCell id="29" style="edgeStyle=none;html=1;exitX=1;exitY=0.5;exitDx=0;exitDy=0;entryX=0;entryY=0.5;entryDx=0;entryDy=0;" edge="1" parent="1" target="31">
                    <mxGeometry relative="1" as="geometry">
                        <mxPoint x="1290" y="290" as="sourcePoint"/>
                    </mxGeometry>
                </mxCell>
                <mxCell id="41" style="edgeStyle=none;html=1;exitX=1;exitY=0.5;exitDx=0;exitDy=0;entryX=-0.025;entryY=0.5;entryDx=0;entryDy=0;entryPerimeter=0;" edge="1" parent="1" source="31" target="40">
                    <mxGeometry relative="1" as="geometry"/>
                </mxCell>
                <mxCell id="31" value="Sonarcloud" style="shape=image;verticalLabelPosition=bottom;labelBackgroundColor=default;verticalAlign=top;aspect=fixed;imageAspect=0;image=data:image/svg+xml,PHN2ZyB4bWxucz0iaHR0cDovL3d3dy53My5vcmcvMjAwMC9zdmciIHZpZXdCb3g9IjAuMTEgMC4xMiA3OTkuNzMgNzU5LjExOTExMDA2ODk1NTEiIHdpZHRoPSIyNTAwIiBoZWlnaHQ9IjIzNzMiPjxwYXRoIGQ9Ik03NDYuNzMgMzI3LjA4YzM0LjA2IDQzLjc0IDUzLjExIDk4Ljk2IDUzLjExIDE1NS40MiAwIDEzNS4zNy0xMDUuNTUgMjQ1LjIzLTIzNC45NSAyNDUuMjMtMTUuMzUtLjAzLTMwLjY3LTEuNi00NS43MS00LjdzLTI5LjczLTcuNzEtNDMuODUtMTMuNzVhMjI5LjI1IDIyOS4yNSAwIDAgMS00MC4yNS0yMi4yNiAyMjguOTQ1IDIyOC45NDUgMCAwIDEtMzUuMDMtMjkuODcgMjI5Ljk5NiAyMjkuOTk2IDAgMCAxLTc1LjM5IDUyLjExIDIzMC41MzEgMjMwLjUzMSAwIDAgMS00My45IDEzLjc2Yy0xNS4wNSAzLjEtMzAuMzggNC42OC00NS43NCA0LjcxQzEwNS4zNyA3MjcuNzMuMTEgNjE3LjU4LjExIDQ4Mi41YzAtMTA5LjYyIDY5LjM1LTIwMi41NSAxNjQuMzItMjMzLjh2LTMuMzRDMTY0LjQzIDEwOS45OSAyNjkuNjQuMTIgMzk5LjM4LjEyYzEyOS42NCAwIDIzNC44MSAxMTAuMTEgMjM0LjgxIDI0NS4xOXYyLjg3YzExLjA0IDMuNjEgMjEuOCA4LjAzIDMyLjE5IDEzLjIyIDEwLjM5IDUuMiAyMC4zOSAxMS4xNiAyOS45MSAxNy44NCA5LjUyIDYuNjcgMTguNTQgMTQuMDQgMjYuOTggMjIuMDVzMTYuMjggMTYuNjMgMjMuNDYgMjUuNzl6TTU2NC44OSA2NjUuNzJjOTcuMDIgMCAxNzUuNzktODIuMjEgMTc2LjAzLTE4Mi45OCAwLTc3LjMzLTQ3LjEtMTQ1Ljc1LTExNC45Mi0xNzIuMDJhMjQ3LjcxMSAyNDcuNzExIDAgMCAxLTMzLjgzIDc0LjkzIDI0Ni4wMDUgMjQ2LjAwNSAwIDAgMS0yNS43MyAzMi4xOSAyNDUuODU0IDI0NS44NTQgMCAwIDEtMzAuNyAyNy40M2MtNS4yOSAzLjkzLTExLjI0IDUuNzQtMTcuMTkgNS43NC05LjI0IDAtMTguNTMtNC42OS0yNC4yNS0xMy4wMWEzMS43MjMgMzEuNzIzIDAgMCAxLTQuNjctMTAuOTYgMzEuNjYgMzEuNjYgMCAwIDEtLjMyLTExLjkyYy42NC0zLjk2IDIuMDMtNy43NiA0LjA4LTExLjIgMi4wNi0zLjQ0IDQuNzQtNi40NiA3LjkyLTguODlhMTg2LjIxMyAxODYuMjEzIDAgMCAwIDU0LjQ2LTY1Ljk0YzYuMzktMTIuOTIgMTEuMjYtMjYuNTQgMTQuNTItNDAuNTlzNC44OC0yOC40MyA0Ljg0LTQyLjg2YzAtMTAxLjA2LTc4Ljc4LTE4My4yNi0xNzUuNTEtMTgzLjI2LTk0LjU0IDAtMTcxLjYxIDc4LjA0LTE3NS42MSAxNzUuNjUgMy43Ny0uMjMgNy40OC0uMjMgMTEuMjQtLjIzIDYuODktLjAxIDEzLjc3LjI5IDIwLjYzLjkxczEzLjY5IDEuNTUgMjAuNDYgMi44YTIyNi4xODUgMjI2LjE4NSAwIDAgMSAzOS43NCAxMS4xMmM0Ljk1IDEuODIgMjUuMTUgOS42MiAzOC4xIDIxLjA1IDIuOTkgMi43IDUuNDMgNS45NCA3LjIgOS41NiAxLjc3IDMuNjEgMi44NCA3LjU0IDMuMTQgMTEuNTZzLS4xOCA4LjA2LTEuMzkgMTEuOWEzMS42MyAzMS42MyAwIDAgMS01LjcxIDEwLjUzIDI4LjY4OCAyOC42ODggMCAwIDEtOC45MyA3LjQ3Yy0zLjQ2IDEuODUtNy4yNiAyLjk3LTExLjE2IDMuMjhzLTcuODMtLjE4LTExLjUzLTEuNDVhMjguNyAyOC43IDAgMCAxLTEwLjAxLTUuOTVjLTIuOTUtMi41OS0xMi40OC03LjIzLTE5LjI0LTkuNjItLjI0IDAtLjQzLS4yNC0uNjctLjI0LTE5LjUyLTcuMjctMzkuOTEtMTEuMi02MC44Ni0xMS4yLTk2Ljc4IDAtMTc1LjYxIDgyLjI2LTE3NS42MSAxODMuMjJDNTkuNDEgNTgzLjc1IDEzOC4yNCA2NjYgMjM1LjAyIDY2NmExNzAuOSAxNzAuOSAwIDAgMCAzNS45Mi0zLjg5IDE3MS41MTcgMTcxLjUxNyAwIDAgMCA2NS41MS0yOS42OCAxNzIuNDEgMTcyLjQxIDAgMCAwIDI2LjY5LTI0LjQ3Yy0yMC45MS0zNi43LTMzLjE1LTc5LjY3LTMzLjE1LTEyNS40NmEzMC40MyAzMC40MyAwIDAgMSA4LjQ1LTIxLjY5YzIuNzYtMi44NyA2LjA2LTUuMTcgOS43MS02Ljc2IDMuNjUtMS42IDcuNTgtMi40NSAxMS41Ni0yLjUxIDMuOTYuMDkgNy44Ny45NSAxMS41IDIuNTVzNi45MiAzLjkgOS42NyA2Ljc2YzIuNzUgMi44NyA0LjkyIDYuMjUgNi4zOCA5Ljk2YTMwLjQ4IDMwLjQ4IDAgMCAxIDIuMTIgMTEuNjRjMCAxMDEuMDYgNzguNzggMTgzLjI3IDE3NS41MSAxODMuMjd6IiBmaWxsPSIjZjM3MDJhIi8+PC9zdmc+;" vertex="1" parent="1">
                    <mxGeometry x="1370" y="250" width="84.21" height="80" as="geometry"/>
                </mxCell>
                <mxCell id="38" value="Deploy staging" style="outlineConnect=0;dashed=0;verticalLabelPosition=bottom;verticalAlign=top;align=center;html=1;shape=mxgraph.aws3.cloud_2;fillColor=#F58534;gradientColor=none;" vertex="1" parent="1">
                    <mxGeometry x="1680" y="252.5" width="75" height="75" as="geometry"/>
                </mxCell>
                <mxCell id="40" value="Tag build #" style="aspect=fixed;html=1;points=[];align=center;image;fontSize=12;image=img/lib/azure2/general/Tag.svg;" vertex="1" parent="1">
                    <mxGeometry x="1520" y="250" width="80" height="80" as="geometry"/>
                </mxCell>
                <mxCell id="42" style="edgeStyle=none;html=1;exitX=1;exitY=0.5;exitDx=0;exitDy=0;" edge="1" parent="1" target="38">
                    <mxGeometry relative="1" as="geometry">
                        <mxPoint x="1600" y="289.5" as="sourcePoint"/>
                        <mxPoint x="1663.79" y="289.5" as="targetPoint"/>
                    </mxGeometry>
                </mxCell>
                <mxCell id="43" value="Tag release #" style="aspect=fixed;html=1;points=[];align=center;image;fontSize=12;image=img/lib/azure2/general/Tag.svg;" vertex="1" parent="1">
                    <mxGeometry x="1840" y="250" width="80" height="80" as="geometry"/>
                </mxCell>
                <mxCell id="44" style="edgeStyle=none;html=1;exitX=1;exitY=0.5;exitDx=0;exitDy=0;" edge="1" parent="1">
                    <mxGeometry relative="1" as="geometry">
                        <mxPoint x="1755" y="289.5" as="sourcePoint"/>
                        <mxPoint x="1835" y="289.8404255319149" as="targetPoint"/>
                    </mxGeometry>
                </mxCell>
                <mxCell id="45" value="Testing" style="sketch=0;aspect=fixed;html=1;points=[];align=center;image;fontSize=12;image=img/lib/mscae/Azure_Test_Plans.svg;" vertex="1" parent="1">
                    <mxGeometry x="1210" y="250" width="72" height="80" as="geometry"/>
                </mxCell>
                <mxCell id="46" value="Publish test&lt;br&gt;results" style="sketch=0;pointerEvents=1;shadow=0;dashed=0;html=1;strokeColor=none;fillColor=#DF8C42;labelPosition=center;verticalLabelPosition=bottom;verticalAlign=top;align=center;outlineConnect=0;shape=mxgraph.veeam2.aws_s3;" vertex="1" parent="1">
                    <mxGeometry x="2000" y="250" width="80" height="80" as="geometry"/>
                </mxCell>
                <mxCell id="47" style="edgeStyle=none;html=1;exitX=1;exitY=0.5;exitDx=0;exitDy=0;" edge="1" parent="1">
                    <mxGeometry relative="1" as="geometry">
                        <mxPoint x="1920" y="289.5" as="sourcePoint"/>
                        <mxPoint x="2000" y="289.8404255319149" as="targetPoint"/>
                    </mxGeometry>
                </mxCell>
            </root>
        </mxGraphModel>
    </diagram>
</mxfile>